# xmcd CD database file
#
# Track frame offsets:
#	150
#	13927
#	26197
#	38552
#	52600
#	79117
#	98145
#	111687
#	127037
#	143442
#	158815
#
# Disc length: 2329 seconds
#
# Revision: 0
# Processed by: cddbd v1.5PL3 Copyright (c) Steve Scherf et al.
# Submitted via: CDex 1.50beta9
#
DISCID=8909170b
DTITLE=Baby&CIDER - BACK TO SCHOOL
DYEAR=2003
DGENRE=Rock
TTITLE0=失恋同好会
TTITLE1=Welcome Baby&CIDER
TTITLE2=オバケの転校生
TTITLE3=寄り道ベイビー
TTITLE4=ブランニューなことさ
TTITLE5=あぶない☆カリキュラム
TTITLE6=かせき音頭
TTITLE7=席がえの季節
TTITLE8=ヘッドフォンジャック
TTITLE9=泣くな！かなしみちゃん
TTITLE10=青春フレーバー
EXTD=YEAR: 2003
EXTT0=
EXTT1=
EXTT2=
EXTT3=
EXTT4=
EXTT5=
EXTT6=
EXTT7=
EXTT8=
EXTT9=
EXTT10=
PLAYORDER=
